<svg id="svg" xmlns="http://www.w3.org/2000/svg" xmlns:xlink="http://www.w3.org/1999/xlink" width="400" height="400" viewBox="0, 0, 400,400" version="1.1"><g id="svgg"><path id="path0" d="M179.724 94.604 C 179.216 94.936,177.180 95.201,175.200 95.191 C 168.651 95.161,160.826 96.338,154.507 98.305 C 151.849 99.132,149.478 99.612,149.238 99.371 C 148.997 99.130,148.800 99.361,148.800 99.885 C 148.800 100.548,150.074 100.720,153.000 100.454 C 164.340 99.423,199.431 98.979,198.878 99.873 C 198.524 100.447,195.933 100.800,192.077 100.800 C 184.874 100.800,162.811 102.207,155.200 103.152 C 151.115 103.659,153.689 103.859,167.200 104.083 C 176.660 104.240,186.380 104.429,188.800 104.503 C 191.220 104.577,194.790 104.674,196.733 104.718 C 204.956 104.908,198.153 105.465,176.400 106.383 C 147.814 107.590,141.671 108.506,159.600 108.890 C 166.640 109.040,174.740 109.215,177.600 109.278 C 190.286 109.559,197.600 110.042,197.600 110.599 C 197.600 111.129,190.602 111.296,154.994 111.615 C 142.132 111.730,141.317 113.552,154.040 113.746 C 178.024 114.112,191.940 114.819,192.837 115.718 C 193.214 116.094,182.330 116.390,168.560 116.379 C 154.832 116.367,142.700 116.606,141.600 116.910 C 139.661 117.446,139.674 117.466,142.000 117.592 C 143.320 117.664,145.120 117.877,146.000 118.067 C 146.880 118.256,152.280 118.578,158.000 118.783 C 185.658 119.773,195.374 120.591,193.292 121.756 C 192.575 122.158,191.629 122.265,191.191 121.994 C 190.275 121.428,134.503 121.230,133.942 121.791 C 133.285 122.448,147.405 123.531,153.866 123.319 C 157.599 123.197,160.566 123.474,161.205 124.004 C 161.829 124.522,163.409 124.683,164.975 124.389 C 167.691 123.880,177.686 124.745,194.400 126.935 C 196.380 127.195,198.810 127.399,199.800 127.388 C 200.790 127.378,201.600 127.691,201.600 128.085 C 201.600 128.962,201.627 128.962,190.800 128.022 C 157.819 125.158,94.482 125.375,78.643 128.405 C 75.313 129.042,72.276 129.370,71.894 129.135 C 71.512 128.899,71.200 129.087,71.200 129.553 C 71.200 130.019,70.570 130.402,69.800 130.405 C 69.030 130.408,67.320 130.978,66.000 131.672 C 64.680 132.367,62.048 133.466,60.152 134.116 C 53.447 136.411,51.246 140.800,56.800 140.800 C 59.056 140.800,60.000 140.459,60.000 139.645 C 60.000 139.009,60.869 137.479,61.931 136.245 L 63.862 134.000 100.131 134.000 C 142.195 134.000,142.176 133.997,142.736 140.400 C 142.781 140.913,147.899 141.092,157.000 140.900 C 174.717 140.525,173.713 139.886,173.542 151.422 C 173.364 163.407,174.118 162.857,156.834 163.599 C 147.812 163.985,142.964 164.500,142.748 165.094 C 142.445 165.929,141.799 169.190,141.659 170.598 C 141.538 171.815,135.639 177.748,133.260 179.044 C 130.459 180.571,83.239 180.447,66.629 178.869 C 62.653 178.492,60.014 173.641,60.004 166.693 C 60.000 163.076,59.068 162.433,53.800 162.411 C 51.298 162.400,51.200 162.521,51.200 165.600 C 51.200 167.360,50.881 168.800,50.492 168.800 C 45.390 168.800,43.613 190.534,47.916 200.310 C 48.863 202.461,49.785 205.341,49.965 206.710 C 50.145 208.080,50.342 209.200,50.403 209.200 C 50.464 209.200,50.685 210.611,50.893 212.336 C 51.446 216.905,52.278 217.918,55.657 218.134 C 58.482 218.314,60.328 219.623,59.545 220.890 C 59.352 221.201,59.903 223.108,60.769 225.128 C 61.635 227.147,62.086 228.806,61.772 228.812 C 61.457 228.819,61.560 229.089,62.000 229.412 C 62.440 229.736,63.445 231.273,64.234 232.829 C 65.022 234.384,66.385 236.105,67.263 236.653 C 68.843 237.640,68.843 237.620,67.229 234.457 C 65.235 230.549,65.114 229.262,67.005 232.075 C 69.259 235.429,72.641 239.200,73.395 239.200 C 79.784 239.200,74.858 242.929,67.613 243.579 C 60.528 244.214,26.467 255.434,13.856 261.287 C 6.936 264.499,3.720 266.579,8.463 264.776 C 10.878 263.858,29.080 259.214,32.000 258.771 C 35.322 258.267,38.572 257.576,43.200 256.390 C 45.620 255.770,48.860 255.075,50.400 254.846 C 53.791 254.342,64.521 252.364,67.932 251.615 C 71.881 250.748,70.782 251.751,66.200 253.197 C 57.846 255.833,52.153 258.089,42.949 262.407 C 37.032 265.183,36.188 266.309,41.404 264.469 C 43.193 263.838,46.039 263.102,47.729 262.834 C 49.418 262.566,53.140 261.661,56.000 260.824 C 58.860 259.986,63.951 258.743,67.313 258.061 C 70.675 257.380,75.688 256.294,78.452 255.650 C 81.216 255.005,83.791 254.671,84.174 254.907 C 84.557 255.144,85.304 254.996,85.835 254.578 C 86.366 254.160,87.340 253.797,88.000 253.772 C 89.168 253.727,95.558 252.635,100.400 251.653 C 103.291 251.067,101.618 251.875,95.600 253.973 C 86.777 257.048,83.300 258.434,76.504 261.585 C 68.449 265.320,67.840 266.229,74.856 264.045 C 77.489 263.226,80.894 262.344,82.422 262.087 C 83.950 261.829,87.163 261.087,89.563 260.438 C 91.962 259.790,94.089 259.423,94.289 259.623 C 94.489 259.823,95.063 259.646,95.564 259.230 C 96.065 258.814,97.718 258.317,99.238 258.127 C 100.757 257.936,105.287 257.029,109.304 256.110 C 113.321 255.191,117.821 254.272,119.304 254.067 C 120.787 253.863,124.105 253.289,126.678 252.793 C 132.507 251.668,133.393 252.252,128.257 253.834 C 124.643 254.947,119.551 256.848,109.944 260.670 C 105.973 262.250,100.000 265.478,100.000 266.044 C 100.000 266.201,101.530 265.783,103.400 265.117 C 105.270 264.450,107.790 263.871,109.000 263.830 C 110.210 263.790,111.200 263.528,111.200 263.250 C 111.200 262.971,111.830 262.713,112.600 262.677 C 113.370 262.640,117.420 261.684,121.600 260.552 C 125.780 259.420,130.460 258.308,132.000 258.081 C 133.540 257.854,137.860 256.951,141.600 256.074 C 145.340 255.196,149.840 254.311,151.600 254.106 C 153.360 253.902,155.700 253.526,156.800 253.270 C 157.900 253.015,160.060 252.624,161.600 252.402 L 164.400 251.998 162.000 252.874 C 151.489 256.713,143.497 259.893,138.400 262.262 C 135.100 263.797,132.103 264.986,131.741 264.906 C 131.378 264.826,131.286 265.092,131.537 265.497 C 131.798 265.921,133.965 265.621,136.628 264.792 C 139.177 263.998,142.329 263.170,143.632 262.950 C 144.934 262.731,149.420 261.653,153.600 260.554 C 157.780 259.455,162.533 258.346,164.161 258.088 C 165.790 257.831,170.328 256.907,174.245 256.035 C 178.162 255.162,182.770 254.261,184.484 254.032 C 187.752 253.596,188.542 253.459,198.679 251.572 C 202.133 250.929,205.299 250.614,205.714 250.871 C 206.130 251.128,206.904 250.979,207.435 250.540 C 207.966 250.100,209.300 249.732,210.400 249.721 C 212.859 249.697,215.583 249.342,226.661 247.604 C 231.424 246.857,236.014 246.426,236.860 246.648 C 237.706 246.869,238.594 246.733,238.834 246.346 C 239.073 245.959,240.603 245.649,242.234 245.657 C 245.438 245.674,246.119 245.618,268.580 243.498 C 280.130 242.407,291.494 242.070,317.770 242.040 C 336.564 242.018,351.324 241.755,350.570 241.456 C 349.817 241.157,348.458 240.887,347.550 240.856 C 346.103 240.807,344.164 238.854,342.052 235.320 C 341.170 233.843,344.111 235.406,345.608 237.209 C 353.783 247.060,367.936 235.809,369.144 218.498 C 369.286 216.464,369.449 214.080,369.507 213.200 C 369.600 211.787,370.230 211.584,374.901 211.466 C 381.137 211.307,381.983 210.694,381.264 206.858 L 380.727 203.996 375.086 204.520 C 370.684 204.929,369.289 204.798,368.735 203.922 C 367.158 201.431,367.936 200.800,372.600 200.788 C 378.702 200.771,378.984 200.531,379.607 194.800 C 381.052 181.509,381.569 173.675,381.208 170.544 C 380.970 168.485,380.607 165.000,380.400 162.800 C 379.978 158.308,378.160 150.484,376.743 147.063 C 375.747 144.657,375.729 144.649,370.800 144.340 C 369.040 144.230,364.540 143.921,360.800 143.652 C 354.998 143.236,351.033 142.974,341.200 142.359 C 340.320 142.304,334.615 141.894,328.522 141.448 C 317.282 140.625,315.020 140.979,316.487 143.330 C 316.853 143.919,317.259 145.120,317.388 146.000 C 317.517 146.880,317.977 149.556,318.411 151.947 C 319.341 157.070,319.365 170.905,318.448 173.200 C 318.021 174.269,317.778 173.073,317.717 169.600 C 317.596 162.706,317.034 157.743,315.496 150.000 C 313.956 142.248,302.354 114.197,298.379 108.615 C 296.441 105.892,292.000 101.751,292.000 102.666 C 292.000 102.876,289.976 102.520,287.503 101.874 C 282.308 100.517,278.659 99.867,276.437 99.901 C 275.577 99.914,274.423 99.551,273.872 99.094 C 273.321 98.636,272.532 98.471,272.119 98.726 C 271.707 98.981,266.685 98.472,260.960 97.595 C 251.123 96.087,246.017 95.543,234.800 94.808 C 225.224 94.181,180.625 94.016,179.724 94.604 M216.600 100.551 C 215.830 100.753,214.570 100.753,213.800 100.551 C 213.030 100.350,213.660 100.186,215.200 100.186 C 216.740 100.186,217.370 100.350,216.600 100.551 M258.532 103.511 C 258.384 103.901,258.564 104.441,258.932 104.711 C 260.179 105.624,264.261 117.106,266.766 126.748 C 269.421 136.965,269.522 136.812,260.114 136.744 C 252.342 136.687,246.120 135.476,252.000 135.164 C 253.540 135.082,255.160 134.932,255.600 134.830 C 256.040 134.727,257.377 134.589,258.572 134.522 C 261.398 134.363,262.668 131.954,262.002 128.014 C 260.955 121.812,259.566 121.230,246.395 121.474 L 239.591 121.600 238.465 124.142 C 237.027 127.393,236.613 126.557,234.834 116.800 C 234.275 113.734,239.903 105.210,243.600 103.525 C 246.257 102.314,258.988 102.302,258.532 103.511 M245.077 105.160 C 242.592 106.241,238.400 111.406,238.400 113.386 C 238.400 113.944,238.095 114.400,237.723 114.400 C 237.351 114.400,237.046 115.840,237.046 117.600 C 237.046 119.749,237.400 120.800,238.123 120.800 C 238.715 120.800,239.200 120.488,239.200 120.106 C 239.200 119.724,244.240 119.454,250.399 119.506 C 261.543 119.600,261.598 119.591,261.599 117.780 C 261.600 115.519,259.037 114.438,253.348 114.299 L 249.200 114.197 254.295 113.537 C 260.213 112.769,260.406 112.654,259.286 110.561 C 258.232 108.592,255.174 107.782,251.436 108.483 C 249.386 108.868,248.729 108.762,249.132 108.111 C 249.441 107.610,251.452 107.200,253.600 107.200 C 258.097 107.200,259.245 106.242,256.337 104.917 C 253.645 103.690,248.185 103.808,245.077 105.160 M277.200 105.257 C 278.520 105.493,280.140 105.697,280.800 105.710 C 281.460 105.723,282.540 105.940,283.200 106.192 C 283.860 106.443,285.545 106.751,286.945 106.876 C 291.516 107.282,293.896 109.150,296.188 114.126 C 298.678 119.533,303.127 130.841,303.503 132.718 C 303.644 133.423,304.038 134.646,304.379 135.435 C 305.504 138.043,299.064 138.803,283.924 137.847 L 277.048 137.413 275.575 131.307 C 274.764 127.948,274.027 124.840,273.935 124.400 C 273.474 122.170,270.028 112.690,268.331 108.978 C 267.269 106.656,266.400 104.553,266.400 104.305 C 266.400 103.866,272.364 104.391,277.200 105.257 M216.733 106.106 C 216.917 106.268,215.408 106.400,213.381 106.400 C 211.353 106.400,209.500 106.085,209.262 105.700 C 208.863 105.055,215.979 105.442,216.733 106.106 M270.000 107.200 C 270.272 107.640,272.363 107.957,274.647 107.905 C 278.214 107.824,278.461 107.725,276.400 107.200 C 272.791 106.282,269.432 106.282,270.000 107.200 M215.933 111.709 C 216.740 112.413,206.676 111.893,205.600 111.175 C 204.777 110.626,206.158 110.539,210.000 110.897 C 213.080 111.184,215.750 111.550,215.933 111.709 M272.000 111.994 C 272.000 113.365,276.161 114.567,279.428 114.140 C 281.094 113.923,283.660 114.077,285.130 114.483 C 286.787 114.940,288.526 114.932,289.702 114.461 L 291.600 113.701 289.600 113.529 C 286.938 113.299,286.235 113.148,284.719 112.483 C 284.015 112.174,283.115 111.981,282.719 112.055 C 282.324 112.129,281.820 112.129,281.600 112.054 C 279.531 111.356,272.000 111.308,272.000 111.994 M211.133 117.308 C 211.842 117.928,205.114 117.449,203.600 116.772 C 202.555 116.305,203.527 116.223,206.400 116.537 C 208.820 116.801,210.950 117.148,211.133 117.308 M273.980 117.632 C 273.267 118.786,274.604 119.033,284.000 119.484 L 293.200 119.926 288.000 118.794 C 281.381 117.353,274.505 116.783,273.980 117.632 M202.200 122.151 C 201.430 122.353,200.170 122.353,199.400 122.151 C 198.630 121.950,199.260 121.786,200.800 121.786 C 202.340 121.786,202.970 121.950,202.200 122.151 M128.200 122.951 C 128.970 123.153,130.230 123.153,131.000 122.951 C 131.770 122.750,131.140 122.586,129.600 122.586 C 128.060 122.586,127.430 122.750,128.200 122.951 M208.609 122.950 C 207.844 123.150,206.404 123.157,205.409 122.966 C 204.414 122.774,205.040 122.611,206.800 122.602 C 208.560 122.593,209.374 122.749,208.609 122.950 M276.175 123.925 C 276.379 124.992,277.854 125.217,285.209 125.306 C 294.447 125.417,294.294 125.305,282.965 123.667 C 276.617 122.748,275.954 122.774,276.175 123.925 M211.933 129.311 C 212.117 129.470,210.587 129.600,208.533 129.600 C 206.480 129.600,204.800 129.236,204.800 128.791 C 204.800 128.064,211.018 128.518,211.933 129.311 M276.800 129.549 C 276.800 131.255,294.553 132.094,295.578 130.436 C 295.852 129.993,294.610 129.691,292.625 129.718 C 290.741 129.743,286.410 129.563,283.000 129.316 C 279.590 129.070,276.800 129.175,276.800 129.549 M264.375 133.640 C 263.615 134.870,264.656 135.664,265.683 134.637 C 266.258 134.062,266.271 133.615,265.725 133.277 C 265.277 133.000,264.670 133.164,264.375 133.640 M219.832 139.711 C 224.596 140.575,227.861 143.500,230.239 149.038 C 231.814 152.704,231.323 153.415,229.396 150.261 C 225.174 143.351,221.780 142.280,202.570 141.797 C 186.359 141.389,180.589 142.111,179.608 144.667 C 179.192 145.751,179.003 145.776,178.413 144.821 C 177.686 143.645,178.943 140.276,179.791 141.125 C 180.045 141.378,180.735 141.186,181.324 140.697 C 181.913 140.208,186.266 139.629,190.997 139.409 C 195.729 139.190,199.780 138.836,200.000 138.623 C 200.421 138.215,216.427 139.093,219.832 139.711 M119.110 141.157 C 118.665 141.602,83.876 142.779,73.625 142.696 C 68.245 142.653,66.618 142.845,68.011 143.361 C 70.388 144.240,78.833 144.811,105.720 145.912 C 112.165 146.176,118.285 146.731,119.320 147.145 C 121.430 147.991,120.550 148.092,108.800 148.360 C 90.643 148.773,68.887 149.894,69.200 150.400 C 69.398 150.720,74.519 151.244,80.580 151.565 C 86.641 151.886,93.220 152.290,95.200 152.464 C 102.860 153.134,118.976 153.874,122.540 153.720 C 124.597 153.631,126.508 153.927,126.787 154.379 C 127.122 154.920,123.806 155.265,117.047 155.392 C 111.411 155.497,103.200 155.651,98.800 155.734 C 82.077 156.050,70.731 156.680,68.857 157.397 C 67.275 158.003,67.720 158.141,71.257 158.143 C 76.114 158.145,76.614 158.171,101.200 159.700 C 110.880 160.302,120.930 160.796,123.533 160.797 C 129.414 160.801,129.141 161.455,123.181 161.641 C 120.772 161.716,108.720 162.274,96.400 162.879 C 84.080 163.485,72.380 164.032,70.400 164.096 C 60.636 164.407,83.175 165.963,119.066 167.455 C 129.225 167.878,134.073 169.020,124.796 168.805 C 121.938 168.739,114.740 168.903,108.800 169.169 C 88.704 170.070,82.820 170.291,75.333 170.424 C 68.483 170.545,68.006 170.654,69.562 171.743 C 70.727 172.559,72.202 172.771,74.276 172.421 C 75.936 172.141,82.493 172.279,88.847 172.729 C 130.100 175.652,130.780 175.600,132.672 169.387 C 133.577 166.415,134.423 147.283,133.821 143.400 L 133.418 140.800 126.443 140.800 C 122.606 140.800,119.306 140.960,119.110 141.157 M52.246 143.252 C 51.282 143.616,50.474 144.563,50.451 145.357 C 50.259 152.027,50.638 156.458,51.449 156.991 C 52.587 157.739,56.079 157.032,57.200 155.826 C 57.747 155.238,57.695 155.137,57.037 155.507 C 54.583 156.887,51.825 155.099,52.391 152.494 C 52.688 151.122,52.928 148.830,52.923 147.400 C 52.915 145.196,53.202 144.800,54.810 144.800 C 55.852 144.800,56.965 144.350,57.281 143.800 C 57.598 143.250,57.571 143.057,57.223 143.372 C 56.875 143.686,56.007 143.639,55.295 143.266 C 54.583 142.894,53.211 142.887,52.246 143.252 M166.370 143.476 C 166.060 143.769,152.862 144.683,147.640 144.773 C 142.627 144.860,154.744 147.887,162.000 148.362 C 166.154 148.633,167.299 149.611,167.044 152.668 C 166.854 154.946,166.488 155.548,165.400 155.365 C 164.630 155.236,164.000 155.483,164.000 155.915 C 164.000 156.347,163.370 156.695,162.600 156.687 C 160.536 156.668,149.394 159.233,148.000 160.049 C 147.273 160.474,151.621 160.761,159.027 160.776 L 171.254 160.800 171.027 152.200 C 170.804 143.742,169.223 140.780,166.370 143.476 M361.107 147.336 C 365.766 148.660,372.738 156.328,370.929 158.138 C 370.718 158.348,370.316 157.796,370.035 156.910 C 368.389 151.723,360.883 148.786,349.361 148.819 C 338.534 148.851,336.155 149.680,335.189 153.759 L 334.564 156.400 334.482 153.153 C 334.398 149.835,335.463 147.719,337.600 146.955 C 339.931 146.122,357.859 146.413,361.107 147.336 M127.800 147.751 C 127.030 147.953,125.770 147.953,125.000 147.751 C 124.230 147.550,124.860 147.386,126.400 147.386 C 127.940 147.386,128.570 147.550,127.800 147.751 M277.600 148.800 C 277.600 149.257,275.200 149.600,272.000 149.600 C 268.800 149.600,266.400 149.257,266.400 148.800 C 266.400 148.343,268.800 148.000,272.000 148.000 C 275.200 148.000,277.600 148.343,277.600 148.800 M314.400 150.920 C 314.400 152.127,313.129 152.379,312.464 151.304 C 312.228 150.922,310.500 150.889,308.624 151.232 C 305.026 151.890,303.663 151.593,304.448 150.322 C 305.213 149.084,314.400 149.636,314.400 150.920 M372.413 161.657 C 373.172 165.116,372.442 165.365,371.409 161.999 C 370.936 160.460,370.847 159.200,371.211 159.200 C 371.575 159.200,372.116 160.306,372.413 161.657 M207.600 161.400 C 204.878 161.715,197.488 163.939,196.639 164.698 C 196.331 164.974,199.391 165.200,203.439 165.200 C 207.488 165.200,212.960 165.528,215.600 165.930 L 220.400 166.660 216.800 167.341 C 214.820 167.715,212.137 168.146,210.838 168.298 C 207.485 168.690,207.251 170.379,210.533 170.492 C 213.092 170.581,214.338 170.752,215.200 171.133 C 215.420 171.231,216.512 171.433,217.627 171.582 C 221.267 172.070,225.598 174.144,223.200 174.251 C 216.811 174.535,216.507 175.588,222.077 178.138 L 226.797 180.299 224.046 181.012 L 221.295 181.725 223.847 183.341 C 226.818 185.222,227.042 186.088,224.748 186.816 C 223.211 187.304,223.298 187.516,225.999 189.870 L 228.902 192.400 228.194 197.600 L 227.487 202.800 226.470 199.200 C 225.269 194.947,220.874 186.400,219.889 186.400 C 219.510 186.400,219.200 185.903,219.200 185.295 C 219.200 183.744,211.466 180.039,207.461 179.671 C 203.783 179.333,197.383 181.817,194.498 184.702 C 192.176 187.024,191.378 185.165,193.656 182.741 C 197.182 178.987,190.656 182.042,186.200 186.231 C 183.439 188.827,183.364 187.560,186.046 183.608 C 187.475 181.502,187.714 180.739,186.838 181.075 C 185.847 181.455,185.657 181.101,185.928 179.378 C 186.117 178.180,186.512 175.580,186.804 173.600 C 187.469 169.102,190.194 163.200,191.605 163.200 C 192.189 163.200,192.788 162.836,192.936 162.392 C 193.342 161.174,199.409 160.355,205.017 160.761 C 207.859 160.966,208.969 161.241,207.600 161.400 M358.400 166.400 L 360.400 167.041 358.452 167.120 C 355.422 167.244,347.187 169.732,347.600 170.399 C 347.802 170.728,350.766 171.046,354.184 171.106 C 357.603 171.166,361.030 171.234,361.800 171.258 C 366.826 171.408,361.988 173.103,356.600 173.079 C 354.401 173.069,354.965 174.786,357.204 174.916 C 358.305 174.979,359.835 175.299,360.603 175.627 C 361.371 175.954,362.643 176.293,363.428 176.379 C 365.933 176.655,367.025 178.400,364.693 178.400 C 361.361 178.400,361.446 179.325,364.936 181.051 C 368.138 182.636,368.176 182.700,366.314 183.412 L 364.400 184.144 366.200 185.370 C 368.208 186.736,368.560 188.000,366.933 188.000 C 366.347 188.000,365.867 188.540,365.867 189.200 C 365.867 189.860,366.044 190.223,366.260 190.007 C 366.476 189.791,367.136 190.015,367.726 190.505 C 368.933 191.506,369.192 194.400,368.075 194.400 C 367.676 194.400,367.538 195.120,367.768 196.000 C 368.417 198.479,366.656 197.887,365.763 195.325 C 362.270 185.304,352.174 182.950,344.708 190.415 C 340.416 194.708,339.730 194.600,342.776 190.112 C 344.681 187.305,343.973 185.947,341.760 188.160 C 340.555 189.365,340.487 187.479,341.536 181.909 C 341.941 179.759,342.512 176.380,342.805 174.400 C 343.097 172.420,343.710 170.350,344.166 169.800 C 344.623 169.250,344.728 168.800,344.400 168.800 C 344.072 168.800,344.249 168.264,344.793 167.609 C 345.336 166.954,346.011 166.549,346.291 166.709 C 346.571 166.869,347.520 166.710,348.400 166.356 C 350.427 165.541,355.790 165.564,358.400 166.400 M174.000 182.400 C 173.120 182.778,171.590 183.113,170.600 183.144 C 167.802 183.231,165.889 185.772,165.305 190.180 C 164.394 197.044,162.422 198.400,153.354 198.400 L 145.831 198.400 145.321 193.000 C 145.041 190.030,144.809 186.250,144.806 184.600 L 144.800 181.600 160.200 181.656 C 169.547 181.690,174.971 181.983,174.000 182.400 M306.400 182.854 C 303.673 183.463,297.600 183.568,297.600 183.006 C 297.600 182.673,299.850 182.442,302.600 182.493 C 305.350 182.544,307.060 182.706,306.400 182.854 M154.284 183.803 L 147.368 184.060 147.045 186.830 C 146.867 188.353,146.870 190.874,147.052 192.432 L 147.383 195.264 153.417 195.032 C 158.001 194.856,159.514 194.511,159.712 193.600 C 159.854 192.940,160.202 191.397,160.484 190.172 C 160.804 188.784,160.583 187.412,159.899 186.533 C 159.294 185.757,159.610 185.969,160.600 187.005 C 162.349 188.836,162.403 188.843,162.520 187.245 C 162.586 186.340,162.676 185.180,162.720 184.667 C 162.820 183.503,162.699 183.491,154.284 183.803 M292.400 183.612 C 291.756 183.842,260.147 186.098,254.000 186.353 C 245.350 186.711,240.728 187.069,238.200 187.576 C 235.356 188.147,235.200 188.071,235.200 186.123 C 235.200 184.116,235.346 184.061,241.400 183.795 C 249.996 183.417,293.382 183.261,292.400 183.612 M157.749 186.200 C 159.400 188.129,159.020 192.058,157.058 193.361 C 154.461 195.086,151.071 192.041,151.996 188.815 C 153.260 184.406,155.388 183.439,157.749 186.200 M191.971 186.600 C 191.941 187.647,188.011 192.825,188.004 191.827 C 188.002 191.512,188.607 189.982,189.348 188.427 C 190.688 185.618,192.026 184.686,191.971 186.600 M211.375 188.358 C 214.813 189.794,219.339 195.520,220.461 199.852 C 223.379 211.117,223.760 219.518,221.611 225.171 C 221.178 226.310,220.660 228.145,220.460 229.249 C 220.008 231.740,216.944 236.800,215.888 236.800 C 215.457 236.800,215.343 237.184,215.633 237.654 C 215.924 238.124,215.406 238.705,214.480 238.947 C 213.556 239.189,212.800 239.647,212.800 239.965 C 212.800 240.927,208.881 242.400,206.323 242.400 C 204.071 242.400,199.200 240.452,199.200 239.551 C 199.200 239.327,199.849 239.491,200.643 239.916 C 203.121 241.242,204.281 239.750,203.779 235.882 L 203.327 232.400 204.402 235.600 L 205.477 238.800 205.536 235.600 C 205.628 230.528,201.994 225.812,197.400 225.044 C 194.873 224.622,195.937 226.255,198.806 227.202 C 200.350 227.711,201.999 228.850,202.471 229.733 C 203.753 232.128,202.819 232.359,201.290 230.025 C 200.164 228.307,199.359 228.000,195.982 228.000 C 193.384 228.000,191.965 227.652,191.898 227.000 C 191.519 223.290,191.366 222.516,190.846 221.674 C 190.168 220.577,191.550 218.686,193.934 217.448 C 195.506 216.632,195.497 216.695,193.786 218.558 C 192.598 219.851,192.344 220.533,193.050 220.533 C 193.643 220.533,195.450 218.748,197.064 216.565 L 200.000 212.598 199.996 215.299 C 199.985 222.628,203.989 227.746,208.039 225.579 C 209.606 224.741,209.513 223.200,207.896 223.200 C 207.450 223.200,206.546 222.660,205.886 222.000 C 205.226 221.340,204.913 220.800,205.190 220.800 C 205.467 220.800,205.418 220.352,205.079 219.804 C 204.246 218.456,204.152 212.800,204.955 212.304 C 205.310 212.085,205.600 211.198,205.600 210.333 C 205.600 209.382,206.409 208.453,207.648 207.982 C 209.993 207.090,209.685 205.956,206.957 205.434 C 204.655 204.994,202.034 205.847,201.900 207.081 C 201.845 207.586,201.755 208.420,201.700 208.933 C 201.500 210.803,200.397 208.594,200.302 206.132 C 200.151 202.222,197.703 194.971,197.624 198.200 C 197.611 198.750,197.233 199.200,196.784 199.200 C 196.097 199.200,196.261 195.259,196.965 194.875 C 197.094 194.805,197.798 194.292,198.529 193.735 C 199.689 192.851,200.134 193.229,202.025 196.704 C 204.741 201.694,208.431 203.435,211.813 201.322 C 212.370 200.974,212.604 200.331,212.334 199.893 C 212.029 199.399,211.338 199.537,210.521 200.252 C 209.652 201.013,208.652 201.187,207.600 200.761 C 206.424 200.284,206.338 200.098,207.276 200.056 C 207.978 200.025,209.201 199.283,209.994 198.406 C 212.192 195.978,213.577 199.289,213.438 206.640 C 213.364 210.583,213.740 213.187,214.631 214.895 C 216.668 218.799,216.122 224.824,213.649 225.739 L 211.697 226.460 213.249 224.714 C 214.798 222.969,214.798 222.968,213.018 223.902 C 210.305 225.325,209.315 228.003,208.287 236.697 L 207.873 240.195 211.070 237.897 C 212.828 236.634,214.224 235.420,214.171 235.200 C 214.119 234.980,214.820 233.360,215.729 231.600 C 218.929 225.404,219.948 213.533,218.073 204.288 C 215.884 193.496,206.487 187.016,199.294 191.340 L 196.400 193.080 198.400 190.852 C 201.795 187.072,206.248 186.216,211.375 188.358 M358.395 193.549 C 371.074 202.552,364.076 240.712,350.946 234.171 C 348.819 233.111,348.682 232.894,350.114 232.851 C 352.084 232.792,352.800 231.390,352.800 227.593 C 352.800 224.745,349.839 221.551,347.292 221.651 C 346.340 221.688,346.429 221.875,347.628 222.361 C 349.967 223.309,351.128 224.967,351.632 228.076 L 352.073 230.800 350.890 227.680 C 349.537 224.114,348.468 223.230,345.489 223.212 C 342.236 223.193,341.551 218.440,344.326 215.143 C 346.717 212.300,347.337 209.385,347.029 202.428 C 346.754 196.218,348.398 194.900,350.616 199.551 C 351.878 202.198,355.330 204.137,356.571 202.896 C 356.843 202.623,356.247 202.400,355.245 202.400 L 353.423 202.400 355.311 200.866 C 357.926 198.742,359.222 201.072,358.627 206.831 C 358.348 209.535,358.596 211.695,359.363 213.253 C 360.000 214.544,360.465 216.320,360.397 217.200 C 360.097 221.087,359.952 221.600,359.153 221.600 C 358.687 221.600,358.526 221.244,358.794 220.809 C 359.069 220.365,358.767 220.217,358.103 220.471 C 356.647 221.030,355.899 222.757,355.536 226.400 C 355.382 227.940,355.052 230.029,354.802 231.042 C 354.403 232.661,354.536 232.784,355.896 232.056 C 357.557 231.167,361.600 223.739,361.600 221.576 C 361.600 220.856,361.806 220.061,362.057 219.810 C 362.751 219.115,362.887 207.199,362.200 207.199 C 361.870 207.200,361.592 206.390,361.582 205.400 C 361.510 197.968,353.970 191.673,348.547 194.516 C 346.826 195.419,346.822 195.408,348.284 193.761 C 350.767 190.963,354.639 190.881,358.395 193.549 M95.200 198.084 C 99.197 198.574,99.388 198.683,97.284 199.273 C 93.960 200.207,64.089 199.785,63.713 198.800 C 63.348 197.844,88.564 197.271,95.200 198.084 M116.621 198.982 C 114.983 199.153,112.103 199.156,110.221 198.987 C 108.340 198.818,109.680 198.677,113.200 198.674 C 116.720 198.671,118.260 198.810,116.621 198.982 M198.200 202.000 C 198.200 203.100,197.885 204.000,197.500 204.000 C 197.115 204.000,196.800 203.100,196.800 202.000 C 196.800 200.900,197.115 200.000,197.500 200.000 C 197.885 200.000,198.200 200.900,198.200 202.000 M78.000 202.600 C 79.320 202.613,87.240 203.102,95.600 203.686 C 103.960 204.269,114.760 204.974,119.600 205.251 C 124.440 205.528,128.493 205.843,128.607 205.952 C 129.104 206.422,67.087 207.225,66.331 206.757 C 65.869 206.472,65.684 205.735,65.920 205.119 C 66.157 204.504,65.929 204.000,65.415 204.000 C 64.070 204.000,65.652 202.647,67.600 202.132 C 68.480 201.899,70.640 201.903,72.400 202.142 C 74.160 202.380,76.680 202.586,78.000 202.600 M348.000 206.234 C 348.000 208.856,347.332 211.465,345.990 214.081 L 343.980 218.000 346.291 215.348 L 348.603 212.697 349.160 215.748 C 350.125 221.023,352.005 223.131,354.396 221.619 C 355.423 220.970,355.371 220.701,354.025 219.717 C 351.848 218.126,351.791 210.441,353.937 208.069 C 355.353 206.505,355.355 206.409,353.984 205.883 C 352.312 205.242,349.600 208.091,349.600 210.489 C 349.600 211.320,349.311 212.000,348.958 212.000 C 348.605 212.000,348.536 209.999,348.805 207.553 C 349.074 205.107,349.003 202.926,348.647 202.706 C 348.291 202.486,348.000 204.073,348.000 206.234 M315.859 205.496 C 316.728 206.047,316.692 206.710,315.659 209.182 C 314.967 210.839,314.400 212.334,314.400 212.503 C 314.400 212.673,316.830 212.585,319.800 212.309 L 325.200 211.807 325.282 214.904 C 325.484 222.552,328.787 232.875,331.835 235.388 C 332.917 236.280,332.944 236.179,332.066 234.531 C 330.557 231.699,331.635 231.535,333.295 234.345 C 334.092 235.695,335.015 236.800,335.344 236.800 C 335.674 236.800,336.344 237.547,336.832 238.461 C 337.645 239.979,337.579 240.045,336.063 239.234 C 331.007 236.528,303.405 234.073,281.200 234.355 C 274.600 234.438,268.367 234.196,267.348 233.817 L 265.496 233.126 267.548 232.028 C 268.677 231.424,269.600 230.450,269.600 229.865 C 269.600 229.279,269.872 228.800,270.205 228.800 C 271.110 228.800,274.754 220.212,274.507 218.660 C 274.425 218.144,274.727 217.492,275.179 217.213 C 277.209 215.958,275.394 215.600,267.000 215.597 C 262.050 215.596,251.430 215.448,243.400 215.270 L 228.800 214.945 228.800 212.720 C 228.800 209.766,228.740 209.787,238.829 209.249 C 243.653 208.991,253.234 208.408,260.120 207.952 C 267.006 207.497,277.446 206.954,283.320 206.747 C 307.295 205.901,313.059 205.608,313.453 205.213 C 314.025 204.642,314.623 204.712,315.859 205.496 M78.800 209.569 C 83.389 210.139,83.259 210.170,75.847 210.282 C 71.408 210.350,67.883 210.058,67.600 209.600 C 67.032 208.682,71.546 208.669,78.800 209.569 M101.050 210.822 C 106.687 211.122,111.132 211.534,110.928 211.739 C 110.723 211.943,104.856 211.850,97.891 211.532 C 90.558 211.196,85.894 210.695,86.813 210.340 C 87.686 210.003,88.940 209.852,89.600 210.003 C 90.260 210.154,95.412 210.523,101.050 210.822 M209.228 211.287 C 209.911 213.442,209.911 217.761,209.226 219.918 C 208.470 222.299,209.955 222.013,211.072 219.562 C 212.653 216.092,211.993 210.875,209.869 210.060 C 208.981 209.720,208.825 210.018,209.228 211.287 M355.405 213.999 C 355.512 216.418,355.825 218.398,356.100 218.399 C 356.922 218.401,357.628 213.590,357.109 211.522 C 356.233 208.031,355.206 209.524,355.405 213.999 M198.400 210.840 C 198.400 211.716,195.874 216.140,195.555 215.822 C 195.052 215.319,197.067 210.400,197.775 210.400 C 198.119 210.400,198.400 210.598,198.400 210.840 M236.303 222.830 C 237.701 227.259,240.568 231.823,239.551 228.000 C 239.106 226.328,239.504 226.558,241.972 229.400 C 245.676 233.665,246.926 233.766,244.816 229.632 C 243.927 227.889,243.208 226.179,243.218 225.832 C 243.244 224.912,246.361 229.046,246.382 230.028 C 246.405 231.097,251.200 233.948,251.200 232.892 C 251.200 232.454,250.875 231.894,250.479 231.649 C 250.082 231.404,249.363 230.032,248.881 228.601 L 248.005 226.000 249.585 228.000 C 250.454 229.100,251.172 230.235,251.182 230.521 C 251.192 230.808,252.370 231.792,253.800 232.708 L 256.400 234.373 252.333 234.387 C 250.097 234.394,248.067 234.200,247.822 233.956 C 247.578 233.712,242.658 233.493,236.889 233.471 C 228.541 233.439,226.400 233.206,226.400 232.330 C 226.400 229.343,228.443 219.529,229.170 219.022 C 231.913 217.110,235.022 218.770,236.303 222.830 M146.000 222.779 C 155.680 222.983,164.629 223.161,165.886 223.175 C 167.561 223.193,168.051 223.514,167.721 224.374 C 167.473 225.020,167.633 225.773,168.077 226.048 C 168.521 226.322,168.732 226.964,168.546 227.473 C 168.360 227.983,168.683 229.570,169.263 231.000 L 170.318 233.600 155.359 233.783 C 138.836 233.986,131.220 234.238,125.200 234.782 C 116.404 235.576,112.888 235.953,110.890 236.315 C 108.770 236.700,108.056 235.754,109.699 234.739 C 110.484 234.254,113.998 227.081,115.459 222.980 C 115.904 221.733,116.723 221.611,122.183 221.983 C 125.602 222.216,136.320 222.574,146.000 222.779 M83.102 236.203 C 84.148 237.451,86.668 239.369,88.702 240.465 L 92.400 242.457 86.167 242.146 C 79.441 241.812,76.606 240.165,73.929 235.040 C 72.078 231.497,72.628 231.511,75.686 235.084 C 77.273 236.938,80.012 239.190,81.773 240.088 L 84.974 241.721 82.981 239.061 C 80.801 236.149,78.376 231.650,78.442 230.640 C 78.465 230.288,79.095 230.885,79.842 231.967 C 80.589 233.049,82.056 234.955,83.102 236.203 M341.857 237.978 C 344.213 239.835,344.268 239.983,342.605 239.991 C 340.834 240.000,335.969 234.445,336.025 232.480 C 336.039 231.996,336.785 232.584,337.682 233.787 C 338.580 234.989,340.458 236.875,341.857 237.978 M179.447 243.228 C 181.222 245.219,186.436 248.800,187.562 248.800 C 187.877 248.800,187.035 247.412,185.691 245.715 C 183.528 242.984,181.600 239.247,181.600 237.786 C 181.600 237.506,182.911 239.149,184.513 241.438 C 186.116 243.727,187.916 245.600,188.513 245.600 C 189.111 245.600,189.600 245.881,189.600 246.225 C 189.600 246.568,190.680 247.257,192.000 247.755 C 194.759 248.796,195.102 248.083,192.831 246.028 C 191.135 244.493,187.718 238.415,188.251 237.882 C 188.702 237.431,192.800 242.895,192.800 243.947 C 192.800 244.416,193.194 244.800,193.677 244.800 C 194.159 244.800,195.613 245.555,196.910 246.478 C 198.206 247.401,200.241 248.450,201.433 248.809 C 204.584 249.759,194.428 250.104,188.400 249.252 C 180.589 248.148,179.661 247.536,176.460 241.382 C 174.724 238.046,174.624 237.605,175.962 239.200 C 176.885 240.300,178.454 242.113,179.447 243.228 " stroke="none" fill="#000000" fill-rule="evenodd"></path></g></svg>